<svg width="112" height="73" viewBox="0 0 112 73" fill="none" xmlns="http://www.w3.org/2000/svg">
<g clip-path="url(#clip0_1203_10)">
<path d="M19.8802 26.8825C17.2383 26.8825 15.0967 26.11 13.4556 24.5651C11.8311 23.0046 11.0188 20.8803 11.0188 18.1921C11.0188 15.4729 11.8311 13.3486 13.4556 11.819C15.0802 10.2741 17.3285 9.50159 20.2002 9.50159C21.3818 9.50159 22.4567 9.57884 23.4249 9.73333C23.8187 9.79513 24.147 9.98053 24.4095 10.2895C24.6721 10.5831 24.8033 10.923 24.8033 11.3092V11.4019C24.8033 11.7263 24.6639 11.989 24.3849 12.1898C24.106 12.3906 23.7941 12.4525 23.4495 12.3752C22.4814 12.1744 21.5214 12.074 20.5695 12.074C18.5839 12.074 17.0741 12.5916 16.0402 13.6267C15.0229 14.6463 14.5141 16.1681 14.5141 18.1921C14.5141 20.1541 15.0146 21.6683 16.0156 22.7343C17.0331 23.7849 18.4033 24.3102 20.1264 24.3102C20.8321 24.3102 21.5295 24.2175 22.2187 24.0321C22.35 24.0011 22.4156 23.9162 22.4156 23.7771V19.1886C22.4156 19.0495 22.35 18.98 22.2187 18.98H19.1418C18.7808 18.98 18.469 18.8641 18.2064 18.6324C17.9602 18.3852 17.8372 18.0916 17.8372 17.7517C17.8372 17.3964 17.9602 17.1029 18.2064 16.8711C18.469 16.624 18.7808 16.5003 19.1418 16.5003H24.311C24.6885 16.5003 25.0167 16.6316 25.2956 16.8943C25.5746 17.157 25.7141 17.4659 25.7141 17.8213V24.5651C25.7141 24.9668 25.591 25.3298 25.3449 25.6543C25.0987 25.9787 24.7787 26.1951 24.3849 26.3032C22.99 26.6894 21.4885 26.8825 19.8802 26.8825ZM30.6391 26.6508C30.2617 26.6508 29.9335 26.5195 29.6545 26.2568C29.3755 25.9941 29.2361 25.6852 29.2361 25.3298V15.921C29.2361 15.5656 29.3755 15.2567 29.6545 14.994C29.9335 14.7313 30.2617 14.6 30.6391 14.6H31.1314C31.5089 14.6 31.837 14.7313 32.1161 14.994C32.3951 15.2567 32.5345 15.5656 32.5345 15.921V16.8943C32.5345 16.9097 32.5428 16.9175 32.5591 16.9175C32.592 16.9175 32.6084 16.9097 32.6084 16.8943C33.0843 16.2763 33.7078 15.7741 34.4791 15.3879C35.2505 14.9862 36.0955 14.739 37.0145 14.6463C37.3591 14.6154 37.6545 14.7236 37.9007 14.9708C38.1468 15.2025 38.2699 15.4806 38.2699 15.8051C38.2699 16.1295 38.1468 16.4076 37.9007 16.6394C37.6545 16.8711 37.3591 17.0024 37.0145 17.0333C34.1099 17.2497 32.6576 18.6401 32.6576 21.2048V25.3298C32.6576 25.6852 32.5182 25.9941 32.2391 26.2568C31.9601 26.5195 31.632 26.6508 31.2545 26.6508H30.6391ZM48.2347 17.5895C47.7588 16.9406 47.0368 16.6162 46.0685 16.6162C45.1003 16.6162 44.3701 16.9406 43.8778 17.5895C43.4018 18.223 43.1639 19.2349 43.1639 20.6254C43.1639 22.0159 43.4018 23.0356 43.8778 23.6844C44.3701 24.3179 45.1003 24.6346 46.0685 24.6346C47.0368 24.6346 47.7588 24.3179 48.2347 23.6844C48.727 23.0356 48.9732 22.0159 48.9732 20.6254C48.9732 19.2349 48.727 18.223 48.2347 17.5895ZM50.647 25.2603C49.5639 26.3418 48.0378 26.8825 46.0685 26.8825C44.0993 26.8825 42.5649 26.3418 41.4655 25.2603C40.3824 24.1633 39.8409 22.6184 39.8409 20.6254C39.8409 18.6324 40.3824 17.0951 41.4655 16.0137C42.5649 14.9167 44.0993 14.3683 46.0685 14.3683C48.0378 14.3683 49.5639 14.9167 50.647 16.0137C51.7465 17.0951 52.2962 18.6324 52.2962 20.6254C52.2962 22.6184 51.7465 24.1633 50.647 25.2603ZM60.5666 26.8825C58.5318 26.8825 56.9646 26.3573 55.8651 25.3067C54.7657 24.2406 54.2159 22.6802 54.2159 20.6254C54.2159 18.6014 54.741 17.0565 55.7913 15.9905C56.858 14.909 58.3676 14.3683 60.3205 14.3683C61.1903 14.3683 62.0272 14.4224 62.8313 14.5305C63.2087 14.5768 63.5205 14.739 63.7666 15.0171C64.0128 15.2952 64.1359 15.6197 64.1359 15.9905C64.1359 16.2995 64.0046 16.5467 63.742 16.7321C63.4959 16.9175 63.2087 16.9792 62.8805 16.9175C62.2405 16.7938 61.5266 16.7321 60.739 16.7321C59.7051 16.7321 58.9338 17.0411 58.4251 17.659C57.9164 18.277 57.662 19.2659 57.662 20.6254C57.662 22.0159 57.9328 23.0124 58.4743 23.6149C59.0159 24.2175 59.8528 24.5187 60.9851 24.5187C61.7892 24.5187 62.4866 24.4492 63.0774 24.3102C63.3892 24.2329 63.6682 24.287 63.9143 24.4724C64.1769 24.6578 64.3082 24.8973 64.3082 25.1908C64.3082 25.5616 64.1851 25.886 63.939 26.1641C63.7092 26.4422 63.4057 26.6122 63.0282 26.674C62.1913 26.813 61.3707 26.8825 60.5666 26.8825ZM72.7958 16.5235C71.9589 16.5235 71.3108 16.7475 70.8512 17.1956C70.4081 17.6281 70.1292 18.3311 70.0143 19.3044C70.0143 19.4281 70.08 19.4898 70.2112 19.4898H75.0358C75.1671 19.4898 75.2327 19.4281 75.2327 19.3044C75.1671 17.4505 74.3548 16.5235 72.7958 16.5235ZM73.4112 26.8825C71.2615 26.8825 69.6041 26.3573 68.4389 25.3067C67.2902 24.2406 66.7158 22.6802 66.7158 20.6254C66.7158 18.586 67.2327 17.0333 68.2666 15.9673C69.3004 14.9013 70.7938 14.3683 72.7466 14.3683C76.3897 14.3683 78.2604 16.3149 78.3589 20.2083C78.3754 20.579 78.2358 20.8881 77.9404 21.1352C77.645 21.3824 77.3004 21.506 76.9066 21.506H70.1866C70.0389 21.506 69.9815 21.5756 70.0143 21.7146C70.1292 22.7497 70.4902 23.5068 71.0974 23.9857C71.721 24.4492 72.6235 24.681 73.805 24.681C74.5435 24.681 75.3641 24.5651 76.2666 24.3333C76.562 24.256 76.8327 24.3024 77.0789 24.4724C77.3415 24.6424 77.4727 24.8741 77.4727 25.1676C77.4727 25.523 77.3579 25.8397 77.1281 26.1178C76.9148 26.3805 76.6277 26.5427 76.2666 26.6044C75.3477 26.7898 74.3958 26.8825 73.4112 26.8825ZM82.418 26.6508C82.0405 26.6508 81.7124 26.5195 81.4333 26.2568C81.1543 25.9941 81.0149 25.6852 81.0149 25.3298V15.921C81.0149 15.5656 81.1543 15.2567 81.4333 14.994C81.7124 14.7313 82.0405 14.6 82.418 14.6H82.9103C83.2878 14.6 83.6159 14.7313 83.8949 14.994C84.1739 15.2567 84.3134 15.5656 84.3134 15.921V16.8943C84.3134 16.9097 84.3216 16.9175 84.338 16.9175C84.3708 16.9175 84.3872 16.9097 84.3872 16.8943C84.8631 16.2763 85.4866 15.7741 86.258 15.3879C87.0293 14.9862 87.8743 14.739 88.7934 14.6463C89.138 14.6154 89.4334 14.7236 89.6795 14.9708C89.9257 15.2025 90.0487 15.4806 90.0487 15.8051C90.0487 16.1295 89.9257 16.4076 89.6795 16.6394C89.4334 16.8711 89.138 17.0024 88.7934 17.0333C85.8887 17.2497 84.4364 18.6401 84.4364 21.2048V25.3298C84.4364 25.6852 84.297 25.9941 84.018 26.2568C83.739 26.5195 83.4108 26.6508 83.0334 26.6508H82.418ZM96.2604 26.4654L92.1743 15.8283C92.0758 15.5192 92.1169 15.2411 92.2974 14.994C92.4779 14.7313 92.7404 14.6 93.085 14.6H93.8235C94.2338 14.6 94.6112 14.7236 94.9558 14.9708C95.3004 15.2025 95.522 15.5038 95.6204 15.8746L97.9097 23.4527C97.9097 23.4681 97.9179 23.4759 97.9343 23.4759C97.9508 23.4759 97.9589 23.4681 97.9589 23.4527L100.593 15.8514C100.724 15.4806 100.962 15.1794 101.307 14.9476C101.651 14.7159 102.029 14.6 102.439 14.6H103.03C103.374 14.6 103.637 14.7313 103.817 14.994C104.014 15.2567 104.047 15.5347 103.916 15.8283L97.9097 30.521C97.762 30.8917 97.5158 31.1853 97.1712 31.4016C96.8266 31.6333 96.441 31.7492 96.0143 31.7492H95.4235C95.0954 31.7492 94.8327 31.6179 94.6358 31.3552C94.4554 31.1081 94.4308 30.8376 94.562 30.5441L96.2604 26.8362C96.2933 26.7744 96.3097 26.7126 96.3097 26.6508C96.3097 26.589 96.2933 26.5272 96.2604 26.4654ZM15.5233 47.1371V52.7222C15.5233 52.8303 15.589 52.8999 15.7202 52.9308C16.3439 53.0081 16.951 53.0467 17.5418 53.0467C18.871 53.0467 19.8802 52.7763 20.5695 52.2356C21.2752 51.6794 21.6279 50.8914 21.6279 49.8717C21.6279 47.817 20.266 46.7895 17.5418 46.7895C16.951 46.7895 16.3439 46.8281 15.7202 46.9054C15.589 46.9363 15.5233 47.0135 15.5233 47.1371ZM13.5049 61.4127C13.1275 61.4127 12.7993 61.2814 12.5202 61.0187C12.2577 60.756 12.1264 60.4471 12.1264 60.0917V45.9321C12.1264 45.5613 12.2577 45.2291 12.5202 44.9356C12.7829 44.642 13.111 44.4798 13.5049 44.4489C14.8998 44.3253 16.2454 44.2635 17.5418 44.2635C20.0033 44.2635 21.8495 44.727 23.0802 45.654C24.311 46.5655 24.9264 47.8941 24.9264 49.64C24.9264 51.5713 24.3275 53.0313 23.1295 54.02C21.9479 55.0087 20.1921 55.5032 17.8618 55.5032C17.3202 55.5032 16.6064 55.4722 15.7202 55.4105C15.589 55.4105 15.5233 55.4722 15.5233 55.5959V60.0917C15.5233 60.4471 15.3839 60.756 15.1049 61.0187C14.826 61.2814 14.4977 61.4127 14.1202 61.4127H13.5049ZM28.4997 61.4127C28.1223 61.4127 27.7941 61.2814 27.5151 61.0187C27.2362 60.756 27.0966 60.4471 27.0966 60.0917V50.6829C27.0966 50.3275 27.2362 50.0186 27.5151 49.7559C27.7941 49.4932 28.1223 49.3619 28.4997 49.3619H28.992C29.3695 49.3619 29.6977 49.4932 29.9766 49.7559C30.2556 50.0186 30.3951 50.3275 30.3951 50.6829V51.6562C30.3951 51.6716 30.4033 51.6794 30.4197 51.6794C30.4526 51.6794 30.4689 51.6716 30.4689 51.6562C30.9449 51.0382 31.5685 50.536 32.3397 50.1498C33.111 49.7481 33.9562 49.501 34.8751 49.4083C35.2197 49.3773 35.5151 49.4855 35.7612 49.7327C36.0074 49.9644 36.1305 50.2425 36.1305 50.567C36.1305 50.8914 36.0074 51.1695 35.7612 51.4013C35.5151 51.633 35.2197 51.7643 34.8751 51.7952C31.9705 52.0116 30.5182 53.402 30.5182 55.9667V60.0917C30.5182 60.4471 30.3787 60.756 30.0997 61.0187C29.8208 61.2814 29.4926 61.4127 29.1151 61.4127H28.4997ZM46.0953 52.3514C45.6194 51.7025 44.8974 51.3781 43.9291 51.3781C42.961 51.3781 42.2306 51.7025 41.7383 52.3514C41.2625 52.9849 41.0245 53.9968 41.0245 55.3873C41.0245 56.7778 41.2625 57.7975 41.7383 58.4463C42.2306 59.0798 42.961 59.3965 43.9291 59.3965C44.8974 59.3965 45.6194 59.0798 46.0953 58.4463C46.5876 57.7975 46.8337 56.7778 46.8337 55.3873C46.8337 53.9968 46.5876 52.9849 46.0953 52.3514ZM48.5076 60.0222C47.4245 61.1037 45.8983 61.6444 43.9291 61.6444C41.9599 61.6444 40.4256 61.1037 39.326 60.0222C38.243 58.9252 37.7014 57.3803 37.7014 55.3873C37.7014 53.3943 38.243 51.857 39.326 50.7756C40.4256 49.6786 41.9599 49.1302 43.9291 49.1302C45.8983 49.1302 47.4245 49.6786 48.5076 50.7756C49.6071 51.857 50.1568 53.3943 50.1568 55.3873C50.1568 57.3803 49.6071 58.9252 48.5076 60.0222Z" fill="#7E2103"/>
<mask id="path-2-outside-1_1203_10" maskUnits="userSpaceOnUse" x="2.69231" y="33.434" width="59" height="41" fill="black">
<rect fill="white" x="2.69231" y="33.434" width="59" height="41"/>
<path d="M29.8399 70.6765C31.7185 70.6671 33.591 70.5236 35.4576 70.326C38.9882 69.9284 42.4907 69.1615 45.8869 67.9642C47.5911 67.3855 49.2431 66.6891 50.8069 65.814C52.3607 64.9319 53.8303 63.8686 55.0452 62.5253C55.1675 62.3865 55.2878 62.2454 55.3981 62.0948L55.7128 61.6314L55.6888 61.6526C56.3564 60.7892 56.9218 59.8294 57.3408 58.7967C57.7618 57.7687 58.0445 56.656 58.1889 55.508C58.4575 53.2073 58.1688 50.7984 57.4531 48.5871C57.032 47.3097 56.4667 46.0959 55.775 44.9997C55.0853 43.9081 54.2513 42.9036 53.3431 42.0238C51.5166 40.2571 49.3454 38.9633 47.0538 38.0905C44.7562 37.2107 42.3403 36.7779 39.8884 36.6485C37.4364 36.5168 34.9564 36.6838 32.4743 36.9825C30.9225 37.1566 28.2881 37.6624 28.228 36.8649C28.1979 36.4509 28.6089 36.0369 29.3748 35.6722C30.1406 35.3076 31.2614 34.9947 32.6467 34.8159C35.9969 34.3902 39.4332 34.2443 42.8315 34.7783C44.5337 35.03 46.2137 35.4887 47.8477 36.1051C48.6597 36.4321 49.4697 36.7755 50.2516 37.2013C50.6485 37.3966 51.0294 37.6365 51.4164 37.8577C51.6069 37.9753 51.7953 38.1 51.9838 38.2223C52.1722 38.3423 52.3627 38.4646 52.5451 38.601C54.7124 40.1207 56.6591 42.172 58.0425 44.7456C59.4158 47.3003 60.2238 50.2762 60.302 53.3249C60.3401 54.847 60.1877 56.3902 59.8148 57.8675C59.4459 59.3472 58.8445 60.7563 58.0786 61.9937C57.3127 63.2381 56.3865 64.3249 55.376 65.2494C54.3656 66.1786 53.2789 66.9597 52.1602 67.6348C50.1493 68.851 48.0261 69.7167 45.907 70.4319C43.7798 71.1517 41.6166 71.7186 39.4332 72.135C35.0646 72.9678 30.6178 73.196 26.2031 72.8337C24.13 72.662 22.063 72.3703 20.014 71.9398C17.947 71.5022 15.9 70.8624 13.9232 69.9402C12.9348 69.4838 11.9644 68.9475 11.0262 68.3264C10.0879 67.7101 9.18367 66.9949 8.33761 66.1763C7.48955 65.3624 6.71366 64.4214 6.03601 63.3745C5.36037 62.3277 4.80903 61.1538 4.40405 59.9141C3.71236 57.7781 3.51388 55.3739 3.85671 53.1367C4.17749 50.8855 4.96942 48.7894 6.02399 46.9522C7.09058 45.1196 8.42583 43.5247 9.95755 42.252C10.7234 41.6145 11.5354 41.057 12.3895 40.5888C12.604 40.4736 12.8205 40.3653 13.037 40.2571L13.6906 39.9725C14.1217 39.7678 14.5708 39.6314 15.0139 39.4691C15.2204 39.3891 15.4369 39.335 15.6514 39.2762C15.8659 39.2174 16.0825 39.1562 16.297 39.0974C16.732 38.9986 17.1691 38.9021 17.6042 38.8033C18.0412 38.7328 18.4723 38.6269 18.8993 38.554C19.1118 38.5163 19.3243 38.4763 19.5328 38.4293C19.6371 38.4058 19.7414 38.3822 19.8456 38.3587C19.9499 38.3375 20.0521 38.3187 20.1544 38.2976C20.4077 38.2577 20.6335 38.3493 20.8942 38.3611C21.1528 38.3752 21.4154 38.3964 21.6801 38.3987C22.2114 38.3987 22.7467 38.4269 23.286 38.4387C24.3546 38.5069 25.4252 38.6363 26.3194 39.1256H26.3214C26.4837 39.168 26.6481 39.2103 26.8125 39.2526L27.2997 39.4009C27.6225 39.4997 27.9473 39.5843 28.2621 39.6714C29.7176 40.0313 30.5958 40.4265 30.9707 40.7441C31.3456 41.064 31.2072 41.3275 30.6238 41.5863C30.3692 41.7015 30.5316 42.0379 29.8379 41.918C28.8335 41.8897 27.7609 41.6121 26.6862 41.3534C25.6136 41.097 24.517 40.7935 23.4544 40.6853C20.8561 40.3936 18.2257 40.5394 15.7476 41.344L14.8294 41.6804C14.5247 41.7956 14.2319 41.9462 13.9312 42.0779C13.3378 42.3508 12.7764 42.6825 12.2291 43.0542C11.1364 43.8046 10.136 44.7409 9.25184 45.8089C8.36769 46.8769 7.61385 48.0908 7.02241 49.3917C6.43098 50.6949 6.01396 52.0993 5.8255 53.5343C5.63704 54.9693 5.67915 56.4325 5.97787 57.8228C6.28662 59.2225 6.8099 60.554 7.54168 61.7325C8.42984 63.1887 9.59267 64.4284 10.8898 65.4588C12.189 66.4915 13.6205 67.3266 15.1101 67.9994C16.5997 68.6722 18.1495 69.1874 19.7233 69.5615L20.3147 69.6955L20.9142 69.8132C21.3152 69.8884 21.7141 69.9731 22.1151 70.039C22.9191 70.1637 23.723 70.2954 24.529 70.373C26.2973 70.5659 28.0716 70.5871 29.868 70.6647L29.8399 70.6765Z"/>
</mask>
<path d="M29.8399 70.6765C31.7185 70.6671 33.591 70.5236 35.4576 70.326C38.9882 69.9284 42.4907 69.1615 45.8869 67.9642C47.5911 67.3855 49.2431 66.6891 50.8069 65.814C52.3607 64.9319 53.8303 63.8686 55.0452 62.5253C55.1675 62.3865 55.2878 62.2454 55.3981 62.0948L55.7128 61.6314L55.6888 61.6526C56.3564 60.7892 56.9218 59.8294 57.3408 58.7967C57.7618 57.7687 58.0445 56.656 58.1889 55.508C58.4575 53.2073 58.1688 50.7984 57.4531 48.5871C57.032 47.3097 56.4667 46.0959 55.775 44.9997C55.0853 43.9081 54.2513 42.9036 53.3431 42.0238C51.5166 40.2571 49.3454 38.9633 47.0538 38.0905C44.7562 37.2107 42.3403 36.7779 39.8884 36.6485C37.4364 36.5168 34.9564 36.6838 32.4743 36.9825C30.9225 37.1566 28.2881 37.6624 28.228 36.8649C28.1979 36.4509 28.6089 36.0369 29.3748 35.6722C30.1406 35.3076 31.2614 34.9947 32.6467 34.8159C35.9969 34.3902 39.4332 34.2443 42.8315 34.7783C44.5337 35.03 46.2137 35.4887 47.8477 36.1051C48.6597 36.4321 49.4697 36.7755 50.2516 37.2013C50.6485 37.3966 51.0294 37.6365 51.4164 37.8577C51.6069 37.9753 51.7953 38.1 51.9838 38.2223C52.1722 38.3423 52.3627 38.4646 52.5451 38.601C54.7124 40.1207 56.6591 42.172 58.0425 44.7456C59.4158 47.3003 60.2238 50.2762 60.302 53.3249C60.3401 54.847 60.1877 56.3902 59.8148 57.8675C59.4459 59.3472 58.8445 60.7563 58.0786 61.9937C57.3127 63.2381 56.3865 64.3249 55.376 65.2494C54.3656 66.1786 53.2789 66.9597 52.1602 67.6348C50.1493 68.851 48.0261 69.7167 45.907 70.4319C43.7798 71.1517 41.6166 71.7186 39.4332 72.135C35.0646 72.9678 30.6178 73.196 26.2031 72.8337C24.13 72.662 22.063 72.3703 20.014 71.9398C17.947 71.5022 15.9 70.8624 13.9232 69.9402C12.9348 69.4838 11.9644 68.9475 11.0262 68.3264C10.0879 67.7101 9.18367 66.9949 8.33761 66.1763C7.48955 65.3624 6.71366 64.4214 6.03601 63.3745C5.36037 62.3277 4.80903 61.1538 4.40405 59.9141C3.71236 57.7781 3.51388 55.3739 3.85671 53.1367C4.17749 50.8855 4.96942 48.7894 6.02399 46.9522C7.09058 45.1196 8.42583 43.5247 9.95755 42.252C10.7234 41.6145 11.5354 41.057 12.3895 40.5888C12.604 40.4736 12.8205 40.3653 13.037 40.2571L13.6906 39.9725C14.1217 39.7678 14.5708 39.6314 15.0139 39.4691C15.2204 39.3891 15.4369 39.335 15.6514 39.2762C15.8659 39.2174 16.0825 39.1562 16.297 39.0974C16.732 38.9986 17.1691 38.9021 17.6042 38.8033C18.0412 38.7328 18.4723 38.6269 18.8993 38.554C19.1118 38.5163 19.3243 38.4763 19.5328 38.4293C19.6371 38.4058 19.7414 38.3822 19.8456 38.3587C19.9499 38.3375 20.0521 38.3187 20.1544 38.2976C20.4077 38.2577 20.6335 38.3493 20.8942 38.3611C21.1528 38.3752 21.4154 38.3964 21.6801 38.3987C22.2114 38.3987 22.7467 38.4269 23.286 38.4387C24.3546 38.5069 25.4252 38.6363 26.3194 39.1256H26.3214C26.4837 39.168 26.6481 39.2103 26.8125 39.2526L27.2997 39.4009C27.6225 39.4997 27.9473 39.5843 28.2621 39.6714C29.7176 40.0313 30.5958 40.4265 30.9707 40.7441C31.3456 41.064 31.2072 41.3275 30.6238 41.5863C30.3692 41.7015 30.5316 42.0379 29.8379 41.918C28.8335 41.8897 27.7609 41.6121 26.6862 41.3534C25.6136 41.097 24.517 40.7935 23.4544 40.6853C20.8561 40.3936 18.2257 40.5394 15.7476 41.344L14.8294 41.6804C14.5247 41.7956 14.2319 41.9462 13.9312 42.0779C13.3378 42.3508 12.7764 42.6825 12.2291 43.0542C11.1364 43.8046 10.136 44.7409 9.25184 45.8089C8.36769 46.8769 7.61385 48.0908 7.02241 49.3917C6.43098 50.6949 6.01396 52.0993 5.8255 53.5343C5.63704 54.9693 5.67915 56.4325 5.97787 57.8228C6.28662 59.2225 6.8099 60.554 7.54168 61.7325C8.42984 63.1887 9.59267 64.4284 10.8898 65.4588C12.189 66.4915 13.6205 67.3266 15.1101 67.9994C16.5997 68.6722 18.1495 69.1874 19.7233 69.5615L20.3147 69.6955L20.9142 69.8132C21.3152 69.8884 21.7141 69.9731 22.1151 70.039C22.9191 70.1637 23.723 70.2954 24.529 70.373C26.2973 70.5659 28.0716 70.5871 29.868 70.6647L29.8399 70.6765Z" fill="#FF782C"/>
<path d="M29.8399 70.6765C31.7185 70.6671 33.591 70.5236 35.4576 70.326C38.9882 69.9284 42.4907 69.1615 45.8869 67.9642C47.5911 67.3855 49.2431 66.6891 50.8069 65.814C52.3607 64.9319 53.8303 63.8686 55.0452 62.5253C55.1675 62.3865 55.2878 62.2454 55.3981 62.0948L55.7128 61.6314L55.6888 61.6526C56.3564 60.7892 56.9218 59.8294 57.3408 58.7967C57.7618 57.7687 58.0445 56.656 58.1889 55.508C58.4575 53.2073 58.1688 50.7984 57.4531 48.5871C57.032 47.3097 56.4667 46.0959 55.775 44.9997C55.0853 43.9081 54.2513 42.9036 53.3431 42.0238C51.5166 40.2571 49.3454 38.9633 47.0538 38.0905C44.7562 37.2107 42.3403 36.7779 39.8884 36.6485C37.4364 36.5168 34.9564 36.6838 32.4743 36.9825C30.9225 37.1566 28.2881 37.6624 28.228 36.8649C28.1979 36.4509 28.6089 36.0369 29.3748 35.6722C30.1406 35.3076 31.2614 34.9947 32.6467 34.8159C35.9969 34.3902 39.4332 34.2443 42.8315 34.7783C44.5337 35.03 46.2137 35.4887 47.8477 36.1051C48.6597 36.4321 49.4697 36.7755 50.2516 37.2013C50.6485 37.3966 51.0294 37.6365 51.4164 37.8577C51.6069 37.9753 51.7953 38.1 51.9838 38.2223C52.1722 38.3423 52.3627 38.4646 52.5451 38.601C54.7124 40.1207 56.6591 42.172 58.0425 44.7456C59.4158 47.3003 60.2238 50.2762 60.302 53.3249C60.3401 54.847 60.1877 56.3902 59.8148 57.8675C59.4459 59.3472 58.8445 60.7563 58.0786 61.9937C57.3127 63.2381 56.3865 64.3249 55.376 65.2494C54.3656 66.1786 53.2789 66.9597 52.1602 67.6348C50.1493 68.851 48.0261 69.7167 45.907 70.4319C43.7798 71.1517 41.6166 71.7186 39.4332 72.135C35.0646 72.9678 30.6178 73.196 26.2031 72.8337C24.13 72.662 22.063 72.3703 20.014 71.9398C17.947 71.5022 15.9 70.8624 13.9232 69.9402C12.9348 69.4838 11.9644 68.9475 11.0262 68.3264C10.0879 67.7101 9.18367 66.9949 8.33761 66.1763C7.48955 65.3624 6.71366 64.4214 6.03601 63.3745C5.36037 62.3277 4.80903 61.1538 4.40405 59.9141C3.71236 57.7781 3.51388 55.3739 3.85671 53.1367C4.17749 50.8855 4.96942 48.7894 6.02399 46.9522C7.09058 45.1196 8.42583 43.5247 9.95755 42.252C10.7234 41.6145 11.5354 41.057 12.3895 40.5888C12.604 40.4736 12.8205 40.3653 13.037 40.2571L13.6906 39.9725C14.1217 39.7678 14.5708 39.6314 15.0139 39.4691C15.2204 39.3891 15.4369 39.335 15.6514 39.2762C15.8659 39.2174 16.0825 39.1562 16.297 39.0974C16.732 38.9986 17.1691 38.9021 17.6042 38.8033C18.0412 38.7328 18.4723 38.6269 18.8993 38.554C19.1118 38.5163 19.3243 38.4763 19.5328 38.4293C19.6371 38.4058 19.7414 38.3822 19.8456 38.3587C19.9499 38.3375 20.0521 38.3187 20.1544 38.2976C20.4077 38.2577 20.6335 38.3493 20.8942 38.3611C21.1528 38.3752 21.4154 38.3964 21.6801 38.3987C22.2114 38.3987 22.7467 38.4269 23.286 38.4387C24.3546 38.5069 25.4252 38.6363 26.3194 39.1256H26.3214C26.4837 39.168 26.6481 39.2103 26.8125 39.2526L27.2997 39.4009C27.6225 39.4997 27.9473 39.5843 28.2621 39.6714C29.7176 40.0313 30.5958 40.4265 30.9707 40.7441C31.3456 41.064 31.2072 41.3275 30.6238 41.5863C30.3692 41.7015 30.5316 42.0379 29.8379 41.918C28.8335 41.8897 27.7609 41.6121 26.6862 41.3534C25.6136 41.097 24.517 40.7935 23.4544 40.6853C20.8561 40.3936 18.2257 40.5394 15.7476 41.344L14.8294 41.6804C14.5247 41.7956 14.2319 41.9462 13.9312 42.0779C13.3378 42.3508 12.7764 42.6825 12.2291 43.0542C11.1364 43.8046 10.136 44.7409 9.25184 45.8089C8.36769 46.8769 7.61385 48.0908 7.02241 49.3917C6.43098 50.6949 6.01396 52.0993 5.8255 53.5343C5.63704 54.9693 5.67915 56.4325 5.97787 57.8228C6.28662 59.2225 6.8099 60.554 7.54168 61.7325C8.42984 63.1887 9.59267 64.4284 10.8898 65.4588C12.189 66.4915 13.6205 67.3266 15.1101 67.9994C16.5997 68.6722 18.1495 69.1874 19.7233 69.5615L20.3147 69.6955L20.9142 69.8132C21.3152 69.8884 21.7141 69.9731 22.1151 70.039C22.9191 70.1637 23.723 70.2954 24.529 70.373C26.2973 70.5659 28.0716 70.5871 29.868 70.6647L29.8399 70.6765Z" stroke="#FF782C" mask="url(#path-2-outside-1_1203_10)"/>
</g>
<defs>
<clipPath id="clip0_1203_10">
<rect width="112" height="73" fill="white"/>
</clipPath>
</defs>
</svg>
